<svg height="1000" width="998" xmlns="http://www.w3.org/2000/svg"><path d="M0 499q0-102 40-194 79-186 265-265 92-40 194-40t194 40q184 78 265 265 40 95 40 194t-40 194q-81 188-265 267-92 40-194 40t-194-40q-186-80-265-267-40-92-40-194zm78 0q0 141 84 252 83 109 217 155l0-80q0-60 40-87-20-1-47-7-51-9-87-32-91-55-91-199 0-75 50-128-23-59 5-128l20 0q10 0 25 5 39 12 87 44 61-16 120-16t121 16q39-26 73-40 32-12 46-10l12 1q27 69 5 128 50 53 50 128 0 112-55 169-30 32-79 50-41 15-91 19 41 29 41 87l0 80q129-46 213-157 82-110 82-250 0-85-33-164-32-76-90-134-56-56-134-89-80-34-163-34-82 0-164 34-75 32-134 89-56 58-90 134-33 79-33 164z"/></svg>